<svg xmlns="http://www.w3.org/2000/svg" width="544" height="160" viewBox="0 0 544 160" role="img" aria-labelledby="title desc">
  <title id="title">Hans Niemann logo</title>
  <desc id="desc">Geometric HN monogram with chessboard-inspired framing.</desc>
  <defs>
    <linearGradient id="g" x1="0%" y1="0%" x2="100%" y2="100%">
      <stop offset="0%" stop-color="#17191f"/>
      <stop offset="100%" stop-color="#111215"/>
    </linearGradient>
  </defs>
  <rect x="0" y="0" width="544" height="160" rx="22" fill="none"/>
  <g transform="translate(0 8)">
    <rect x="0" y="0" width="144" height="144" rx="24" fill="url(#g)"/>
    <rect x="18" y="18" width="108" height="108" rx="18" fill="none" stroke="#F4EFE4" stroke-opacity=".18"/>
    <path d="M18 72H126M72 18V126" stroke="#F4EFE4" stroke-opacity=".12"/>
    <path d="M40 106V40H54V66H90V40H104V106H90V79H54V106Z" fill="#F4EFE4"/>
    <path d="M87 40H101L126 74V106H112V78L87 44Z" fill="#A2182A"/>
    <rect x="108" y="18" width="18" height="18" fill="#A2182A"/>
  </g>
  <g fill="#101114" transform="translate(176 44)">
    <text x="0" y="42" font-family="'Bricolage Grotesque','Arial',sans-serif" font-size="56" font-weight="700" letter-spacing="-3">Hans Niemann</text>
    <text x="2" y="84" font-family="'Geist Mono','Courier New',monospace" font-size="18" letter-spacing="4" fill="#5D646C">RATING / TIMELINE / FACTS</text>
  </g>
</svg>
